<svg width="53" height="60" viewBox="0 0 53 60" fill="none" xmlns="http://www.w3.org/2000/svg">
<g clip-path="url(#clip0_1_546)">
<path d="M10.8318 0.140338C13.0308 -0.094745 15.2592 0.0227965 17.4631 0.189314C19.4466 5.66968 21.577 11.106 23.6536 16.5521C24.4176 18.8686 26.8223 20.2987 29.2123 20.1518C36.0101 20.1028 42.8226 20.3183 49.6107 19.9852C49.5568 19.6767 49.4539 19.0547 49.405 18.7462C42.186 18.6286 34.9669 18.9274 27.7528 18.6678C26.9937 18.5209 25.6861 18.4621 25.5881 17.4826C25.3775 15.9741 25.451 14.4461 25.4902 12.9377C25.2698 12.7418 24.8388 12.3451 24.6184 12.1492C24.6233 11.4096 24.6331 10.675 24.638 9.94525C26.7733 9.8571 28.9136 9.8473 31.0538 9.88158C30.613 8.48088 30.4318 7.0312 30.4024 5.57663C30.8726 5.2289 31.1909 4.52855 31.8374 4.49917C36.4019 4.25919 41.0154 4.79302 45.5506 4.00941C46.0844 4.51386 46.6035 5.0379 47.1178 5.58153C47.0541 7.00182 47.0394 8.42701 47.0737 9.8522C48.7732 9.97464 50.8448 9.35265 52.3386 10.1216C51.8488 26.597 52.2455 43.1066 52.0398 59.5967C51.3052 59.7975 50.5608 59.9934 49.8017 59.9934C34.1295 59.9151 18.4622 59.9248 2.78998 59.9444C1.93781 59.9102 1.05625 59.9591 0.253046 59.6457C-0.104476 58.2009 0.0375536 56.7022 0.0228609 55.2379C0.0718365 45.2616 0.130607 35.2852 0.179583 25.3089C0.169788 23.585 0.18448 21.861 0.424461 20.1567C1.07094 19.9804 1.72231 19.8089 2.37369 19.6424C5.20938 13.1532 8.09404 6.67368 10.8318 0.140338Z" fill="#3A3A39" stroke="#3A3A39" stroke-width="0.09" stroke-miterlimit="10"/>
<path d="M12.4039 3.23078C12.83 2.14353 14.2356 2.74593 15.1122 2.56961C16.7284 5.802 17.9577 9.2156 19.3339 12.5557C20.1861 14.9408 21.293 17.2623 21.7288 19.7796C21.0922 19.7698 20.4555 19.7649 19.8237 19.7649C18.614 15.3571 16.6403 11.1844 15.7244 6.69826C15.504 5.73833 15.2151 4.77352 14.6176 3.98011C13.2022 3.76952 12.6732 5.24368 12.3304 6.32604C11.2579 10.6506 9.3625 14.7009 7.83936 18.8785C7.61897 20.1274 6.12031 19.5788 5.23386 19.7845C5.64035 17.708 6.85495 15.9302 7.64835 13.9956C9.20088 10.3959 10.8122 6.8158 12.4039 3.23078Z" fill="#FAFAF9" stroke="#FAFAF9" stroke-width="0.09" stroke-miterlimit="10"/>
<path d="M34.0021 6.95293C37.3472 6.85498 40.6971 6.77172 44.0372 6.96272C44.0568 7.90306 44.0911 8.84828 44.1254 9.79841C40.5208 9.85228 36.9162 9.79351 33.3165 9.85718C33.6495 8.91195 33.8993 7.94713 34.0021 6.95293Z" fill="#FBFAFB" stroke="#FBFAFB" stroke-width="0.09" stroke-miterlimit="10"/>
<path d="M13.4324 10.2783C13.5989 10.3273 13.9319 10.4252 14.0985 10.4693C15.0682 13.5891 16.1065 16.6941 17.3015 19.7404C14.9212 19.7649 12.5459 19.7551 10.1657 19.7306C11.2921 16.5962 12.8153 13.5744 13.4324 10.2783Z" fill="#FBFBFB" stroke="#FBFBFB" stroke-width="0.09" stroke-miterlimit="10"/>
<path d="M40.6824 12.3501C43.6601 12.306 46.6427 12.2913 49.6253 12.2962C49.7674 13.5793 49.8212 14.8821 49.5812 16.1604C46.5986 16.0379 43.6062 16.2975 40.6383 15.9694C40.6432 14.7597 40.6579 13.5549 40.6824 12.3501Z" fill="#FBFBFB" stroke="#FBFBFB" stroke-width="0.09" stroke-miterlimit="10"/>
<path d="M28.4385 16.0281C28.4238 14.8086 28.4238 13.594 28.4679 12.3843C31.5925 12.3598 34.7221 12.3451 37.8516 12.3451C37.8957 13.5646 37.9545 14.7939 37.8614 16.0232C34.7417 16.2631 31.568 16.2289 28.4385 16.0281Z" fill="#FCFBFB" stroke="#FCFBFB" stroke-width="0.09" stroke-miterlimit="10"/>
<path d="M40.9762 22.5614C43.9834 22.4586 47.0492 22.7818 49.9927 21.9786C49.8702 33.2136 49.8947 44.4486 49.9094 55.6836C49.9094 56.4134 49.7478 57.1333 49.6008 57.8533C33.8797 57.7014 18.1487 57.8777 2.43246 57.672C2.38349 47.0541 2.43246 36.4411 2.52062 25.8232C2.54511 24.8192 2.53531 23.8152 2.73611 22.8357C7.25656 21.9248 11.919 22.4047 16.5031 22.2872C24.6527 22.6888 32.8169 22.5517 40.9762 22.5614Z" fill="#F2F0F1" stroke="#F2F0F1" stroke-width="0.09" stroke-miterlimit="10"/>
<path d="M3.57358 23.5947C18.6091 23.4625 33.6544 23.6878 48.6948 23.5703C48.6997 34.5359 48.827 45.5113 48.6556 56.477C37.7732 56.4525 26.8909 56.4329 16.0134 56.4525C11.8749 56.3545 7.71692 56.6827 3.59807 56.2958C3.32381 45.4036 3.67154 34.4918 3.57358 23.5947Z" fill="#3A3A3A" stroke="#3A3A3A" stroke-width="0.09" stroke-miterlimit="10"/>
<path d="M5.92932 27.2679C6.04196 26.7635 5.66975 25.495 6.59539 25.686C19.9559 25.5685 33.3165 25.8525 46.677 25.6125C46.8386 35.1383 46.6966 44.6738 46.7162 54.2094C33.1206 54.5033 19.5103 54.2927 5.90973 54.371C5.86565 45.3399 6.03706 36.3039 5.92932 27.2679Z" fill="#FCFCFC" stroke="#FCFCFC" stroke-width="0.09" stroke-miterlimit="10"/>
<path d="M21.5084 27.0475C23.7417 27.0965 25.9799 26.9692 28.2083 27.1406C29.2515 27.3365 30.6326 27.7185 30.9069 28.9086C31.1077 31.4064 30.9656 33.9237 30.9558 36.4362C28.6099 39.0172 24.6625 38.3462 21.5917 37.8515C21.3811 34.2567 21.5035 30.6472 21.5084 27.0475Z" fill="#3A3A3A" stroke="#3A3A3A" stroke-width="0.09" stroke-miterlimit="10"/>
<path d="M7.99608 31.186C8.21157 29.8784 7.51122 28.174 8.57399 27.1749C11.3313 27.0867 14.1327 26.9594 16.846 27.5422C17.61 30.5052 17.1545 33.625 17.1545 36.6517C15.0633 38.5862 11.9337 37.9985 9.37229 37.6802C7.13411 36.2991 8.24096 33.3409 7.99608 31.186Z" fill="#383738" stroke="#383738" stroke-width="0.09" stroke-miterlimit="10"/>
<path d="M35.4126 27.6598C35.5693 27.5373 35.8779 27.2973 36.0297 27.1749C38.6744 27.0574 41.3338 27.0476 43.9735 27.1994C44.9433 28.2915 44.4633 29.8539 44.571 31.186C44.4241 33.3507 44.9629 35.6771 43.9637 37.7047C41.133 38.2189 38.2091 37.9299 35.3489 37.832C35.3294 34.438 35.2951 31.044 35.4126 27.6598Z" fill="#363636" stroke="#363636" stroke-width="0.09" stroke-miterlimit="10"/>
<path d="M10.5918 29.8686C11.9729 29.8294 13.3589 29.8392 14.7449 29.9372C14.7351 31.5681 14.74 33.2039 14.7106 34.8445C13.403 34.9082 12.1002 34.9278 10.7926 34.9572C10.3028 33.2969 10.44 31.5632 10.5918 29.8686Z" fill="#FCFCFC" stroke="#FCFCFC" stroke-width="0.09" stroke-miterlimit="10"/>
<path d="M24.1188 29.5111C25.5734 29.5846 27.0133 29.8197 28.4483 30.0841C28.4924 31.6807 28.512 33.2871 28.4924 34.8886C27.0035 34.9572 25.5195 35.0013 24.0356 35.0307C24.0405 33.1892 24.0307 31.3477 24.1188 29.5111Z" fill="#FBFBFB" stroke="#FBFBFB" stroke-width="0.09" stroke-miterlimit="10"/>
<path d="M37.7879 29.5796C39.2131 29.5552 40.6432 29.5258 42.0733 29.5209C42.088 31.3085 42.0684 33.0961 42.1174 34.8886C40.6824 35.2804 39.174 35.393 37.7341 34.967C37.7781 33.1696 37.7586 31.3722 37.7879 29.5796Z" fill="#FBFBFB" stroke="#FBFBFB" stroke-width="0.09" stroke-miterlimit="10"/>
<path d="M7.98628 42.9451C7.91771 41.515 9.09313 40.0359 10.5967 40.1633C12.8202 40.222 15.5089 39.5266 17.1839 41.4268C17.037 44.6053 17.659 47.9161 16.7284 51.0016C13.8242 51.3395 10.8367 51.7656 7.952 51.0848C8.01566 48.3667 7.92261 45.6534 7.98628 42.9451Z" fill="#3A3A3A" stroke="#3A3A3A" stroke-width="0.09" stroke-miterlimit="10"/>
<path d="M21.3175 41.466C22.1794 39.8792 24.2168 39.8205 25.7987 39.9086C27.3366 40.0604 28.9919 40.08 30.3388 40.9469C31.4946 41.4416 30.9118 42.9843 31.0832 43.9638C30.902 46.344 31.5729 48.9103 30.3583 51.1044C27.3219 51.5256 24.1433 51.6872 21.1313 51.0751C21.3224 47.872 21.0628 44.6593 21.3175 41.466Z" fill="#3B3B3B" stroke="#3B3B3B" stroke-width="0.09" stroke-miterlimit="10"/>
<path d="M35.3539 40.369C38.2091 39.6637 41.2407 39.6148 44.0911 40.3935C44.811 43.9148 44.5319 47.5586 44.3213 51.124C41.3044 51.1681 38.2875 51.1436 35.2706 51.1779C35.3734 47.5733 35.2314 43.9687 35.3539 40.369Z" fill="#383838" stroke="#383838" stroke-width="0.09" stroke-miterlimit="10"/>
<path d="M10.8416 42.7247C11.9974 42.3721 13.1777 42.377 14.3335 42.7345C14.2992 44.7082 14.2845 46.6819 14.2894 48.6605C13.1385 48.6654 11.9876 48.6703 10.8416 48.6654C10.8269 46.6819 10.8367 44.7033 10.8416 42.7247Z" fill="#F8F8F8" stroke="#F8F8F8" stroke-width="0.09" stroke-miterlimit="10"/>
<path d="M24.0553 42.695C25.3924 42.6559 26.7343 42.651 28.0811 42.6559C28.468 44.6247 28.3848 46.6425 28.2868 48.6407C26.8567 48.6652 25.4316 48.6701 24.0015 48.6652C24.0211 46.6719 24.0015 44.6835 24.0553 42.695Z" fill="#FBFBFB" stroke="#FBFBFB" stroke-width="0.09" stroke-miterlimit="10"/>
<path d="M37.9593 42.9108C38.7968 41.7011 40.5648 42.5386 41.799 42.5337C41.7599 44.6788 41.7696 46.819 41.7305 48.9642C40.5502 48.9691 39.3698 48.9985 38.1895 49.0474C37.8859 47.0149 37.8075 44.9531 37.9593 42.9108Z" fill="#E7E7E7" stroke="#E7E7E7" stroke-width="0.09" stroke-miterlimit="10"/>
<path d="M24.9367 45.5505C25.5 45.5407 26.0681 45.5358 26.6411 45.5407C26.5676 46.0207 26.4991 46.5105 26.4305 47.0002C25.9554 47.0443 25.4853 47.0933 25.02 47.1471C24.9906 46.6084 24.9612 46.0795 24.9367 45.5505Z" fill="#434343" stroke="#434343" stroke-width="0.09" stroke-miterlimit="10"/>
</g>
<defs>
<clipPath id="clip0_1_546">
<rect width="52.3467" height="60" fill="white"/>
</clipPath>
</defs>
</svg>
