<svg width="61" height="60" viewBox="0 0 61 60" fill="none" xmlns="http://www.w3.org/2000/svg">
<g clip-path="url(#clip0_1_461)">
<path d="M2.79632 12.0476C1.64755 5.92241 7.19834 -0.294477 13.3863 0.0240904C17.7062 -0.260689 21.3794 3.15184 22.8709 6.96982C23.8748 9.27219 23.2715 11.8062 23.3487 14.21C26.1531 17.1157 29.1022 19.8959 31.7232 22.9802C33.5622 21.3053 35.0826 19.3264 36.9216 17.6563C40.5803 14.4561 43.7418 10.5465 48.1245 8.29235C49.0995 7.72762 50.2435 7.89173 51.2088 8.40337C51.373 8.71228 51.6963 9.33011 51.8556 9.63902C49.8622 13.3701 46.3531 15.8897 43.6019 19.0126C42.9165 19.0126 42.2359 19.0174 41.5553 19.0319C41.5843 18.8002 41.6422 18.3417 41.6711 18.11C43.8915 15.7014 46.3483 13.5294 48.5396 11.0967C46.1263 12.3806 44.0749 14.1665 42.0862 16.0152C41.1692 17.0288 39.7742 16.4303 38.6061 16.4689C38.6303 17.3232 38.9344 18.2065 38.7365 19.0561C37.1581 21.0302 35.3529 22.8161 33.5573 24.5924C33.5573 24.7516 33.5573 25.075 33.5622 25.2391C33.7215 25.3936 34.04 25.7025 34.1993 25.8618C35.879 23.9021 37.6649 22.039 39.6294 20.3593C39.919 20.9385 40.9664 21.3536 40.5706 22.1355C39.2384 23.9987 37.356 25.3646 35.7873 27.0154C37.6987 29.3516 40.1748 31.1954 42.0428 33.5895C42.0573 35.6312 43.877 36.8475 45.0595 38.2859C48.5638 42.2004 52.0149 46.1632 55.5771 50.0246C55.6205 50.3094 55.7074 50.8741 55.7508 51.1589C54.6407 51.2796 53.5305 51.3713 52.4204 51.4292C49.5967 48.3884 46.7682 45.3523 43.8142 42.4418C42.2166 40.9793 41.1643 39.0148 39.446 37.6777C43.0082 42.91 48.3128 46.6266 51.9473 51.8057C54.7951 51.9215 57.6429 51.8974 60.4956 51.8733C61.0265 53.6881 60.4569 55.5561 60.7562 57.3999C60.8962 58.2736 60.6597 59.1327 60.4956 59.9919C40.3631 59.934 20.2306 59.9678 0.0981529 59.9919C0.0257514 57.6895 -0.0563038 55.3823 0.0836726 53.0848C0.0305781 52.3077 1.02489 52.3897 1.5317 52.2691C4.75116 52.0615 7.97062 51.8202 11.1901 51.6995C13.8303 48.4318 16.6733 45.3282 19.4487 42.1666C20.3561 41.0565 20.8388 39.6712 21.4132 38.3728C22.2386 38.3535 23.0688 38.2666 23.8314 37.9191C23.8217 37.6488 23.7976 37.113 23.7831 36.8427C23.0639 36.4711 22.2917 36.2442 21.4808 36.3504C21.3939 37.9191 21.0898 39.536 19.9989 40.7476C17.238 44.0973 14.3613 47.3602 11.3542 50.4977C10.7557 51.0913 9.90615 51.9746 9.01803 51.3327C8.43399 50.9369 7.25143 50.2032 7.90787 49.4116C13.6952 43.4361 18.8309 36.8765 24.1065 30.4617C24.9126 29.3709 26.2351 28.4538 26.3317 27.0057C23.8748 24.4524 21.4421 21.8652 18.9177 19.3794C16.4706 21.0061 13.4152 21.3053 10.5819 20.7744C6.56603 19.7511 3.30796 16.1841 2.79632 12.0476Z" fill="#3A3A3A" stroke="#3A3A3A" stroke-width="0.09" stroke-miterlimit="10"/>
<path d="M11.1852 2.64512C13.3669 2.32655 15.8575 2.33621 17.5807 3.92904C21.2973 6.52585 22.3254 12.3952 19.2556 15.8657C17.4407 18.3032 14.1054 18.9307 11.2673 18.419C7.40587 17.555 4.41327 13.5778 4.98766 9.6005C5.27726 6.24107 8.16367 3.6877 11.1852 2.64512Z" fill="#FBFBFB" stroke="#FBFBFB" stroke-width="0.09" stroke-miterlimit="10"/>
<path d="M8.10093 6.73335C8.5643 5.75834 9.30762 4.96675 10.1427 4.30066C10.775 5.72456 11.1563 7.25947 11.9237 8.62545C13.0049 9.85627 14.284 10.9085 15.2687 12.231C15.4473 12.2069 15.8045 12.1538 15.983 12.1297C16.4464 9.62942 15.1866 7.3367 15.0515 4.8847C16.654 4.79299 17.4987 6.33273 17.9379 7.64079C18.8019 9.79353 18.4737 12.2504 17.5373 14.321C16.7071 15.9814 14.6605 16.4979 12.947 16.5607C8.65118 15.9911 5.81304 10.4982 8.10093 6.73335Z" fill="#383838" stroke="#383838" stroke-width="0.09" stroke-miterlimit="10"/>
<path d="M10.1523 10.6816C11.552 11.8835 12.9615 13.0709 14.3661 14.2679C12.1795 14.432 10.9825 12.371 10.1523 10.6816Z" fill="#FAFAF9" stroke="#FAFAF9" stroke-width="0.09" stroke-miterlimit="10"/>
<path d="M21.9441 16.3628C22.6247 16.6283 23.2521 17.0192 23.7107 17.6033C25.8055 20.036 28.0451 22.3383 30.3041 24.6166C29.6718 25.0413 29.0394 25.4709 28.4023 25.8957C26.1434 23.1685 23.5707 20.7262 21.2346 18.0715C21.4035 17.4778 21.6931 16.9227 21.9441 16.3628Z" fill="#F7F7F7" stroke="#F7F7F7" stroke-width="0.09" stroke-miterlimit="10"/>
<path d="M25.1732 32.7497C27.1763 30.6356 29.1698 28.507 31.3129 26.5425C32.0417 26.5907 32.3892 27.3389 32.8623 27.7926C34.6868 30.1384 37.0857 31.9195 39.2046 33.9805C39.6391 34.3377 39.7935 34.888 39.9962 35.3996C39.1709 35.6313 38.3551 35.9112 37.5008 36.0271C36.0335 34.999 34.8509 33.6282 33.6732 32.3008C32.7319 31.4175 34.2862 30.2832 33.7938 29.2648C33.3932 29.2262 32.592 29.1441 32.1913 29.1055C30.3379 30.5342 28.8802 32.3925 27.2294 34.0385C26.8385 34.5597 26.1627 34.526 25.5931 34.6563C25.4435 34.0191 25.3035 33.382 25.1732 32.7497Z" fill="#FBFBFB" stroke="#FBFBFB" stroke-width="0.09" stroke-miterlimit="10"/>
<path d="M26.1434 38.8072C27.8472 37.0261 29.276 34.9506 31.2742 33.4736C33.2243 34.9699 34.6868 36.9827 36.4099 38.7203C40.6044 43.0017 44.7458 47.3361 48.7182 51.8202C37.2787 51.854 25.8296 52.0374 14.3902 51.8347C18.4543 47.6257 22.0696 43.0113 26.1434 38.8072Z" fill="#FDFDFD" stroke="#FDFDFD" stroke-width="0.09" stroke-miterlimit="10"/>
<path d="M2.55495 54.3302C21.2056 54.2868 39.8563 54.3302 58.5069 54.2771C58.4538 55.2328 58.4828 56.203 58.3331 57.1539C58.0918 57.7524 57.3581 57.4869 56.8754 57.5883C38.7461 57.6945 20.6167 57.6269 2.4922 57.6076C2.48738 56.5119 2.50186 55.421 2.55495 54.3302Z" fill="#FDFDFD" stroke="#FDFDFD" stroke-width="0.09" stroke-miterlimit="10"/>
</g>
<defs>
<clipPath id="clip0_1_461">
<rect width="60.8061" height="60" fill="white"/>
</clipPath>
</defs>
</svg>
