<svg width="64" height="60" viewBox="0 0 64 60" fill="none" xmlns="http://www.w3.org/2000/svg">
<g clip-path="url(#clip0_1_444)">
<path d="M23.6731 1.40231C29.6403 -0.688034 36.4142 -0.431325 42.1719 2.20387C50.8633 5.81351 56.951 14.7355 57.2601 24.1184C58.4493 24.1446 59.67 24.0346 60.8435 24.307C62.8972 25.2291 63.5416 27.7123 63.3425 29.7817C63.1696 34.3972 63.6725 39.0599 62.9234 43.6388C62.5357 43.9531 62.1585 44.2674 61.776 44.5818C60.7387 44.6027 59.6962 44.6132 58.6641 44.6237C58.3078 47.8247 59.56 51.7906 56.6523 54.1219C54.7349 54.1534 52.7807 54.3472 50.8947 53.9385C49.1973 53.2261 49.6321 51.0309 49.2759 49.5693C44.0526 59.9372 29.3993 63.0177 19.9325 56.7833C17.7845 55.3897 16.0871 53.4408 14.4997 51.4605C12.9909 55.4264 6.15928 55.3269 4.95432 51.2143C4.60855 49.0454 4.86526 46.8345 4.86526 44.6446C3.45598 44.7023 2.0467 44.5923 0.736966 44.0369C0.312611 42.8162 -0.0279214 41.5537 0.0506629 40.2492C0.108291 36.0528 -0.101267 31.8459 0.0925746 27.6547C0.475018 25.0038 3.51361 24.3647 5.72445 24.0398C6.63079 20.7603 7.23851 17.3497 8.82067 14.2954C11.8907 8.33345 17.3392 3.61839 23.6731 1.40231Z" fill="#393938" stroke="#393938" stroke-width="0.0220685" stroke-miterlimit="10"/>
<path d="M22.7406 4.58236C28.7811 1.82667 36.0423 2.0991 41.978 5.00148C48.9039 8.42252 54.3524 15.6889 54.0852 23.6207C52.5659 23.6626 50.9366 23.2959 49.5221 24.0241C50.9785 24.4537 52.5031 24.548 54.0119 24.6842C54.1481 25.292 54.2896 25.8997 54.4363 26.5074C56.4166 26.4812 58.4021 26.4655 60.3825 26.4131C60.4034 26.9475 60.4244 27.4818 60.4506 28.0214C53.4932 28.0791 46.5359 28.0581 39.5786 28.0791C38.0278 28.1891 36.4719 28.3201 34.9211 28.3148C24.3489 28.3305 13.7715 28.2782 3.19927 28.3829C3.14688 27.8748 3.08925 27.3718 3.03687 26.8689C5.33153 26.8217 7.62095 26.8374 9.91561 26.7851C12.4041 16.4381 24.2913 10.4343 34.3291 12.6765C40.4325 13.6353 46.2949 18.3084 46.7612 24.7942C47.2379 24.7628 47.7199 24.7366 48.2019 24.7052C49.0558 19.9849 45.9858 15.4689 42.1195 13.0485C33.5328 7.55285 21.4413 8.77877 13.981 15.6785C11.8174 17.4807 10.319 19.8853 8.9988 22.3372C10.4081 14.725 15.5213 7.63667 22.7406 4.58236Z" fill="#FDFDFD" stroke="#FDFDFD" stroke-width="0.0220685" stroke-miterlimit="10"/>
<path d="M44.9799 12.86C44.5398 12.2522 44.1888 10.4186 45.3676 10.6963C49.2287 13.4834 53.0688 17.6326 52.5869 22.7721C51.822 22.7616 51.0571 22.7459 50.2922 22.7354C49.7473 18.8795 47.306 15.8095 44.9799 12.86Z" fill="#343432" stroke="#343432" stroke-width="0.0220685" stroke-miterlimit="10"/>
<path d="M12.6923 31.0444C25.2134 30.9448 37.7397 30.8715 50.2556 31.0391C50.2294 33.931 50.266 36.8177 50.308 39.7096C50.4494 41.4594 49.1082 42.8163 48.6263 44.4194C47.6204 47.3637 46.1168 50.177 43.8536 52.3459C39.5262 57.0243 32.5217 58.1455 26.5021 56.9981C21.347 55.4474 16.3857 51.7697 14.5626 46.5517C16.8939 48.883 18.9057 51.6282 21.8028 53.3204C26.6331 56.4219 32.9722 56.4323 38.2217 54.4311C41.9361 52.6655 45.3467 49.5483 46.5307 45.5143C45.8444 45.6977 44.9275 45.4358 44.3984 46.0173C41.8051 48.9249 38.8766 51.9687 34.9159 52.8279C30.6514 53.75 25.8735 53.3047 22.3372 50.5437C19.5605 48.3172 17.1663 45.6348 14.9764 42.8372C14.484 42.1195 13.5672 42.0462 12.8442 41.6951C12.5351 38.1589 12.7813 34.5911 12.6923 31.0444Z" fill="#FDFDFD" stroke="#FDFDFD" stroke-width="0.0220685" stroke-miterlimit="10"/>
<path d="M53.0426 31.1857C53.3203 31.0705 53.8704 30.8399 54.1428 30.7247C56.3589 30.7928 58.6064 30.5204 60.7858 31.0495C60.7125 34.7325 60.6967 38.4155 60.7334 42.0985C58.1663 42.2137 55.594 42.2399 53.0269 42.1037C53.0688 38.4679 53.0426 34.8268 53.0426 31.1857Z" fill="#FCFCFC" stroke="#FCFCFC" stroke-width="0.0220685" stroke-miterlimit="10"/>
<path d="M2.65964 31.0915C5.10623 31.0391 7.55282 31.0496 10.0047 31.0443C10.0047 34.764 10.0361 38.4784 10.0885 42.198C7.63664 41.8942 5.1691 41.8889 2.71727 42.1457C2.64916 38.4627 2.65964 34.7744 2.65964 31.0915Z" fill="#FCFCFC" stroke="#FCFCFC" stroke-width="0.0220685" stroke-miterlimit="10"/>
<path d="M30.4366 37.2682C30.861 36.8753 31.3377 36.54 31.7988 36.189C33.0404 37.4673 34.0567 39.39 33.0194 41.1136C32.6684 42.3185 31.3377 42.1299 30.3633 42.1614C30.4209 40.5321 30.3738 38.8975 30.4366 37.2682Z" fill="#343434" stroke="#343434" stroke-width="0.0220685" stroke-miterlimit="10"/>
<path d="M7.85145 44.6132C9.06165 44.4141 10.2823 44.3617 11.4978 44.5765C11.8069 46.8345 12.3412 49.2078 11.3563 51.3872C10.3085 51.8168 8.66349 51.9163 7.90908 51.0152C7.61046 48.8987 7.85669 46.7454 7.85145 44.6132Z" fill="#FCFCFA" stroke="#FCFCFA" stroke-width="0.0220685" stroke-miterlimit="10"/>
<path d="M52.2569 44.5503C53.399 44.5294 54.5463 44.5294 55.6936 44.5398C55.6884 46.8659 55.7251 49.1973 55.6203 51.5234C54.3525 51.5915 53.0794 51.6124 51.8116 51.5915C51.7644 49.2392 51.623 46.8397 52.2569 44.5503Z" fill="#FCFCFC" stroke="#FCFCFC" stroke-width="0.0220685" stroke-miterlimit="10"/>
<path d="M29.834 45.6662C32.1654 44.9642 34.7063 45.0742 37.1214 45.2105C36.3199 48.1914 32.1025 49.674 29.8602 47.3951C29.8498 46.8188 29.8393 46.2425 29.834 45.6662Z" fill="#424242" stroke="#424242" stroke-width="0.0220685" stroke-miterlimit="10"/>
</g>
<defs>
<clipPath id="clip0_1_444">
<rect width="63.3844" height="60" fill="white"/>
</clipPath>
</defs>
</svg>
