<svg width="46" height="60" viewBox="0 0 46 60" fill="none" xmlns="http://www.w3.org/2000/svg">
<g clip-path="url(#clip0_1_518)">
<path d="M12.5175 0.00744629C20.1132 0.020914 27.7135 -0.0194891 35.3137 0.0927416C36.1802 0.626959 35.5921 1.79416 36.059 2.55733C38.7256 2.73241 41.4146 2.35531 44.0722 2.68302C45.3741 3.17684 46.0385 4.6942 45.9263 6.03648C45.9397 22.6466 45.9218 39.2567 45.8499 55.8624C46.0385 57.8287 44.5526 59.97 42.4292 59.7546C32.2431 59.8084 22.0571 59.7546 11.8755 59.8039C9.63986 59.8309 7.39973 59.7276 5.17308 59.9566C3.9565 60.1092 2.7489 59.7725 1.64904 59.2877C3.52104 58.5514 5.54568 58.5065 7.52543 58.3539C6.17866 58.1878 4.82741 58.1115 3.48064 57.9948C3.31005 57.8601 2.97336 57.5952 2.80726 57.4606C14.2099 57.5863 25.6125 57.3842 37.0152 57.4291C39.0084 57.3798 41.0106 57.5773 42.9948 57.3573C43.3899 56.6211 43.4572 55.7726 43.5425 54.9646C43.7804 51.3821 43.5739 47.7953 43.6682 44.2129C43.9061 33.5824 43.8882 22.9474 43.8747 12.3169C43.8522 9.84783 44.0139 7.36529 43.6502 4.91417C41.0465 4.37546 38.3933 4.63584 35.7806 4.90519C35.8165 6.83107 35.9377 8.75695 35.9826 10.6873C30.7931 10.611 25.608 10.6918 20.4185 10.6649C17.6666 10.629 14.8923 10.831 12.1673 10.3372C12.1852 8.50555 12.1808 6.67395 12.1987 4.84683C9.69373 4.87826 7.19323 4.81092 4.69273 4.87377C3.84876 4.84683 3.07212 5.19699 2.33589 5.56062C1.81963 5.81202 1.31234 6.08137 0.80955 6.35072C0.719766 6.13075 0.540197 5.69081 0.445923 5.47083C0.52224 3.94001 2.25059 2.66507 3.78591 2.65609C6.56923 2.53488 9.35704 2.62018 12.1448 2.67854C12.3648 1.80314 12.477 0.905291 12.5175 0.00744629Z" fill="#363636" stroke="#363636" stroke-width="0.09" stroke-miterlimit="10"/>
<path d="M14.6184 2.13983C15.3277 2.26553 16.4006 1.79416 16.8855 2.42714C17.0426 4.32159 16.881 6.22951 17.0291 8.12845C16.2749 8.07009 15.5297 8.0252 14.7845 7.98929C14.7755 7.02859 14.771 6.07239 14.771 5.12067C15.1347 4.79745 15.4983 4.47871 15.8709 4.15998C15.633 3.77839 15.404 3.40579 15.1706 3.03318C15.0314 2.80872 14.7531 2.36429 14.6184 2.13983Z" fill="#FCFCFC" stroke="#FCFCFC" stroke-width="0.09" stroke-miterlimit="10"/>
<path d="M19.157 2.18032C22.3444 2.14889 25.5362 2.1444 28.728 2.16236C28.7101 2.96144 28.6966 3.76501 28.6921 4.56858C25.5766 5.09382 22.4027 4.6853 19.2648 4.8514C19.2199 3.95805 19.1839 3.06918 19.157 2.18032Z" fill="#F7F7F7" stroke="#F7F7F7" stroke-width="0.09" stroke-miterlimit="10"/>
<path d="M31.049 2.16233C31.7493 2.15784 32.4541 2.16233 33.1634 2.1758C33.141 4.15105 33.1275 6.1308 33.1903 8.11055C32.517 8.3395 31.8256 8.54152 31.1208 8.40684C30.9412 6.32833 31.1029 4.24084 31.049 2.16233Z" fill="#FDFDFD" stroke="#FDFDFD" stroke-width="0.09" stroke-miterlimit="10"/>
<path d="M15.1706 3.0332C15.404 3.40581 15.633 3.77841 15.8709 4.16C15.4983 4.47873 15.1347 4.79747 14.7711 5.12069C14.7711 6.07241 14.7755 7.02861 14.7845 7.98931C15.5297 8.02522 16.2749 8.07011 17.0291 8.12847C16.1941 8.64025 15.22 8.43823 14.3176 8.30804C14.2189 6.49889 14.4837 4.71217 15.1706 3.0332Z" fill="#949494" stroke="#949494" stroke-width="0.09" stroke-miterlimit="10"/>
<path d="M2.33591 5.56069C3.07214 5.19706 3.84878 4.8469 4.69275 4.87384C7.19325 4.81099 9.69375 4.87833 12.1987 4.8469C12.1808 6.67402 12.1853 8.50562 12.1673 10.3372C14.8923 10.831 17.6666 10.629 20.4185 10.6649C25.6081 10.6919 30.7931 10.6111 35.9827 10.6874C35.9378 8.75702 35.8166 6.83114 35.7806 4.90526C38.3934 4.63591 41.0465 4.37553 43.6503 4.91424C44.0139 7.36536 43.8523 9.8479 43.8747 12.317C43.8882 22.9475 43.9061 33.5824 43.6682 44.2129C43.5739 47.7953 43.7804 51.3822 43.5425 54.9646C43.4527 54.9422 43.2776 54.9063 43.1924 54.8883C40.3956 54.5157 37.5539 54.5965 34.7706 54.0578C30.2993 53.8692 25.8146 54.0039 21.3388 53.977C14.9551 54.6549 8.52206 54.2643 2.11594 54.4708C2.12491 41.3219 2.23266 28.1729 2.21919 15.0195C2.25959 11.8681 2.10696 8.70764 2.33591 5.56069Z" fill="#FCFCFC" stroke="#FCFCFC" stroke-width="0.09" stroke-miterlimit="10"/>
<path d="M0.0957584 8.30802C0.0867799 7.34732 0.252881 6.40009 0.445918 5.47083C0.540192 5.6908 0.719761 6.13074 0.809545 6.35071C1.31234 6.08136 1.81962 5.81201 2.33588 5.56061C2.10693 8.70756 2.25957 11.868 2.21916 15.0194C2.23263 28.1728 2.12489 41.3218 2.11591 54.4707C2.11591 55.4045 2.10693 56.3786 2.56483 57.2271C2.62319 57.2855 2.7444 57.4022 2.80725 57.4605C2.97335 57.5952 3.31004 57.8601 3.48063 57.9948C4.8274 58.1115 6.17866 58.1878 7.52543 58.3539C5.54568 58.5065 3.52104 58.5514 1.64903 59.2877C0.728739 58.3898 -0.106257 57.254 0.02842 55.8893C-0.0389184 40.0289 0.0778015 24.1684 0.0957584 8.30802Z" fill="#2B2B2B" stroke="#2B2B2B" stroke-width="0.09" stroke-miterlimit="10"/>
<path d="M18.7216 8.09708C18.762 7.63918 18.8069 7.18128 18.8607 6.72787C22.3084 6.75929 25.7562 6.7144 29.2039 6.72338C29.1859 7.05558 29.159 7.7155 29.1411 8.0477C25.6754 8.20482 22.1917 8.0477 18.7216 8.09708Z" fill="#DBDBDB" stroke="#DBDBDB" stroke-width="0.09" stroke-miterlimit="10"/>
<path d="M6.76228 12.5638C15.9472 12.5369 25.1322 12.5055 34.3171 12.4471C36.3149 12.5145 38.3575 11.8905 40.3192 12.5279C40.225 19.4413 40.3282 26.3548 40.3552 33.2726C29.361 33.5016 18.3669 33.1784 7.37281 33.129C5.87341 33.2143 6.40314 31.4366 6.65903 30.5522C17.1279 31.1044 27.6147 30.7946 38.0971 31.0011C38.0028 25.5916 38.0522 20.1776 38.0657 14.7681C27.6327 14.5571 17.1908 14.8444 6.75779 14.8534C6.75779 14.0857 6.75779 13.3225 6.76228 12.5638Z" fill="#383838" stroke="#383838" stroke-width="0.09" stroke-miterlimit="10"/>
<path d="M6.69492 16.9812C11.4445 16.4515 16.2435 16.8196 21.0156 16.667C20.8764 20.9901 21.3522 25.3716 20.7327 29.6543C16.0325 29.7037 11.3323 29.6588 6.63207 29.6813C6.62309 25.4479 6.68594 21.2146 6.69492 16.9812Z" fill="#313131" stroke="#313131" stroke-width="0.09" stroke-miterlimit="10"/>
<path d="M21.9403 29.6498C21.9897 25.3177 21.9269 20.9811 22.0391 16.649C26.4969 16.658 30.9547 16.6445 35.4125 16.6445C35.3811 20.9587 35.4215 25.2773 35.3811 29.5915C30.9053 29.8204 26.4206 29.6678 21.9403 29.6498Z" fill="#353535" stroke="#353535" stroke-width="0.09" stroke-miterlimit="10"/>
<path d="M8.92608 19.2617C12.064 18.8038 15.3457 18.8083 18.4657 19.1181C18.533 21.8655 18.4477 24.6129 18.4208 27.3648C15.2559 27.3199 12.091 27.275 8.93057 27.293C8.86323 24.6129 8.93506 21.9373 8.92608 19.2617Z" fill="#FDFDFD" stroke="#FDFDFD" stroke-width="0.09" stroke-miterlimit="10"/>
<path d="M24.5935 18.9834C27.3184 18.9116 30.0479 18.97 32.7773 18.9116C32.7908 21.6725 33.123 24.5591 32.6202 27.2481C29.8504 27.1718 27.0177 27.5534 24.2972 26.9788C24.3286 24.3077 24.4453 21.6456 24.5935 18.9834Z" fill="#FDFDFD" stroke="#FDFDFD" stroke-width="0.09" stroke-miterlimit="10"/>
<path d="M8.95751 36.3029C10.5691 34.175 14.4613 33.8563 16.0729 36.0829C16.2345 37.8786 16.3827 39.7461 15.9742 41.5104C14.9955 43.2208 12.9125 43.1534 11.2021 43.0592C11.1572 44.7247 11.476 46.4755 10.7712 48.0512C10.21 47.9928 9.64885 47.9659 9.10117 47.8716C8.5894 46.2196 9.2942 44.4598 8.85426 42.7853C8.02824 42.6641 7.20671 42.6102 6.38968 42.5249C6.33132 41.663 6.29091 40.7966 6.26398 39.9392C7.19325 39.9212 8.12252 39.9167 9.06076 39.9392C8.91711 38.7315 8.87222 37.515 8.95751 36.3029Z" fill="#373737" stroke="#373737" stroke-width="0.09" stroke-miterlimit="10"/>
<path d="M19.2019 38.2198C19.2468 37.1559 19.2872 36.0964 19.3366 35.0414C24.7326 35.0325 30.1332 35.0818 35.5292 35.01C35.8928 36.0291 35.8973 37.1155 35.9198 38.1929C30.3486 38.2871 24.7775 38.2467 19.2019 38.2198Z" fill="#424242" stroke="#424242" stroke-width="0.09" stroke-miterlimit="10"/>
<path d="M11.2201 37.2546C11.9428 37.2322 12.6701 37.2277 13.3973 37.2322C13.9091 38.1435 14.0707 39.1984 13.8732 40.2399C13.2223 41.0749 12.0685 40.7293 11.1707 40.8954C11.0585 39.6788 11.0719 38.4577 11.2201 37.2546Z" fill="#FAFAFA" stroke="#FAFAFA" stroke-width="0.09" stroke-miterlimit="10"/>
<path d="M19.2378 39.5756C24.782 39.616 30.3262 39.5756 35.8704 39.5801C35.8749 40.7024 36.0679 41.8606 35.7761 42.9694C32.4541 43.1131 29.1276 43.0053 25.81 43.0278C23.5879 42.9694 21.3478 43.1445 19.157 42.736C19.175 41.681 19.1929 40.626 19.2378 39.5756Z" fill="#404040" stroke="#404040" stroke-width="0.09" stroke-miterlimit="10"/>
<path d="M19.1884 44.3521C24.7551 44.4104 30.3262 44.4104 35.8973 44.4643C35.8569 45.4474 36.0994 46.5024 35.7268 47.4406C30.223 47.4631 24.7012 47.6112 19.2109 47.3104C19.1974 46.3183 19.1884 45.3352 19.1884 44.3521Z" fill="#424242" stroke="#424242" stroke-width="0.09" stroke-miterlimit="10"/>
<path d="M19.0942 48.8682C24.7057 48.8592 30.3172 48.8458 35.9288 48.8952C35.9198 49.9232 35.9153 50.9602 35.8884 51.9972C30.8829 52.0646 25.8774 52.0197 20.8719 52.0017C20.1985 51.9389 19.3456 52.1588 18.9909 51.4181C18.8967 50.5607 19.0044 49.7077 19.0942 48.8682Z" fill="#404040" stroke="#404040" stroke-width="0.09" stroke-miterlimit="10"/>
<path d="M2.11592 54.4708C8.52204 54.2643 14.9551 54.6549 21.3388 53.977C25.8145 54.0039 30.2993 53.8693 34.7705 54.0578C37.5539 54.5965 40.3955 54.5157 43.1923 54.8883C43.1923 55.207 43.1968 55.8445 43.1968 56.1677C34.6134 56.2934 26.0255 56.0824 17.4376 56.1902C12.486 56.1722 7.52992 56.3159 2.57831 56.1318C2.57831 56.4057 2.56933 56.9534 2.56484 57.2272C2.10694 56.3787 2.11592 55.4046 2.11592 54.4708Z" fill="#494949" stroke="#494949" stroke-width="0.09" stroke-miterlimit="10"/>
<path d="M43.1923 54.8883C43.2776 54.9063 43.4527 54.9422 43.5425 54.9646C43.4572 55.7727 43.3899 56.6211 42.9948 57.3574C41.0106 57.5774 39.0084 57.3798 37.0152 57.4292C25.6125 57.3843 14.2099 57.5863 2.80727 57.4606C2.74442 57.4023 2.62321 57.2856 2.56485 57.2272C2.56934 56.9534 2.57832 56.4057 2.57832 56.1318C7.52993 56.3159 12.486 56.1722 17.4377 56.1902C26.0255 56.0824 34.6134 56.2934 43.1968 56.1677C43.1968 55.8445 43.1923 55.207 43.1923 54.8883Z" fill="#ECECEC" stroke="#ECECEC" stroke-width="0.09" stroke-miterlimit="10"/>
</g>
<defs>
<clipPath id="clip0_1_518">
<rect width="45.9442" height="60" fill="white"/>
</clipPath>
</defs>
</svg>
