<svg width="49" height="60" viewBox="0 0 49 60" fill="none" xmlns="http://www.w3.org/2000/svg">
<g clip-path="url(#clip0_1_476)">
<path d="M17.7545 7.03496C16.5978 2.65075 22.1807 -1.64951 26.1078 0.645204C29.3307 2.18434 30.9491 7.22619 27.9828 9.75877C30.0676 13.8771 31.2663 18.3686 32.9454 22.6596C36.2755 32.1929 39.9274 41.6096 43.2622 51.1383C43.5514 51.9359 43.8079 52.7521 44.2091 53.5076C45.5756 53.8528 47.3153 53.0459 48.4207 54.058C48.5326 56.0122 48.444 57.9711 48.4487 59.9301C34.3912 59.9394 20.3337 59.9347 6.27626 59.958C4.19143 59.8368 2.02264 60.2892 0.00776672 59.5942C0.124368 57.7053 -0.0901785 55.7744 0.478837 53.9414C1.75212 53.9461 3.03008 53.9321 4.30337 53.9321C8.98608 39.3709 13.8693 24.8657 18.3422 10.2392C18.6733 9.96399 19.0091 9.69348 19.345 9.42763C18.7806 8.65339 18.0996 7.93513 17.7545 7.03496Z" fill="#373737" stroke="#373737" stroke-width="0.09" stroke-miterlimit="10"/>
<path d="M20.553 3.99401C21.5044 2.71606 23.2348 2.24966 24.7413 2.66942C26.5882 3.43433 28.0528 5.35125 27.549 7.43142C26.8588 5.53782 25.5248 3.08919 23.1275 3.51828C21.1546 3.71417 20.2871 5.73371 20.3804 7.51071C19.914 6.396 19.6341 4.95481 20.553 3.99401Z" fill="#F0F0F0" stroke="#F0F0F0" stroke-width="0.09" stroke-miterlimit="10"/>
<path d="M22.7637 5.79431C23.5473 5.90625 24.6247 5.53779 25.147 6.33534C26.5509 7.64128 25.0678 10.5563 23.1228 9.65149C21.7236 8.8586 21.4671 6.83906 22.7637 5.79431Z" fill="#FAFAFA" stroke="#FAFAFA" stroke-width="0.09" stroke-miterlimit="10"/>
<path d="M20.7862 10.7195C20.9914 10.6542 21.3925 10.5283 21.593 10.463C21.4811 11.158 21.3645 11.8576 21.2479 12.5572C22.2413 12.3986 23.2534 12.31 24.2609 12.3146C24.3122 12.851 24.3588 13.3967 24.4055 13.9424C23.2861 13.6859 22.1621 13.378 21.2292 12.6831C20.7209 14.8892 19.858 16.9927 19.1351 19.1382C15.9962 28.7648 12.9739 38.438 9.92823 48.0973C9.3219 49.5432 9.8023 51.031 10.4133 52.3742C9.61107 51.4881 9.07471 50.406 8.56166 49.3379C11.8125 39.4501 14.7975 29.4877 18.0857 19.6186C19.0092 16.6569 20.1938 13.7698 20.7862 10.7195Z" fill="#E8E8E8" stroke="#E8E8E8" stroke-width="0.09" stroke-miterlimit="10"/>
<path d="M25.0817 11.4659C25.3569 11.4332 25.9073 11.3773 26.1825 11.3446C30.5014 22.2585 34.2979 33.3636 38.2437 44.4128C39.2278 47.5424 40.641 50.56 41.2054 53.8109C29.7878 54.0254 18.3608 54.0114 6.94322 53.8482C7.49358 52.3463 8.0626 50.8538 8.56165 49.338C9.0747 50.4061 9.61106 51.4882 10.4133 52.3743C11.4814 52.7661 12.6287 52.8874 13.7621 52.8687C20.7582 52.8501 27.7496 52.8407 34.7457 52.8594C37.0451 53.0366 39.5543 50.8725 38.5982 48.4519C36.0423 40.6675 33.2345 32.9672 30.4967 25.2388C28.7477 20.6261 27.1339 15.9574 25.0817 11.4659Z" fill="#F6F6F6" stroke="#F6F6F6" stroke-width="0.09" stroke-miterlimit="10"/>
<path d="M23.412 15.449C24.5547 16.2838 24.9232 17.711 25.5155 18.9284C26.2711 20.7893 27.3112 22.6503 27.2039 24.7258C29.6525 28.7462 30.7812 33.3823 32.4416 37.7525C33.6963 41.5304 35.5106 45.1917 36.0516 49.1655C34.4518 43.937 32.4743 38.8346 30.5714 33.7088C30.0816 32.3842 29.7225 30.957 28.7337 29.8982C28.3186 31.8991 27.0127 33.7741 25.2077 34.7488C23.7805 35.052 21.9988 35.1033 20.9447 33.914C20.1658 33.275 19.8767 32.2862 19.4802 31.4047C19.9 32.0017 20.3104 32.608 20.7255 33.2144C21.9149 33.7834 23.1368 34.5903 24.5267 34.2731C26.6629 33.9326 27.8335 31.7872 28.4865 29.9262C28.6591 28.1492 27.6377 26.3582 26.341 25.1969C24.8066 24.8004 22.8337 24.4833 21.4578 25.4627C21.1686 25.4954 20.5856 25.57 20.2964 25.6073C19.5735 27.4822 18.9485 29.3898 18.3235 31.3021C17.6333 33.1024 18.5987 35.2199 20.2171 36.1621C22.3113 37.4727 25.3103 37.6172 27.2785 35.9895C28.202 35.2572 28.729 34.1845 29.2981 33.1817C31.145 38.9418 33.2905 44.5993 35.6552 50.1636C27.7496 50.3501 19.8394 50.1636 11.9291 50.2382C12.6194 48.4099 13.4776 46.6422 14.1072 44.7906C15.6324 40.2058 17.5493 35.7003 17.997 30.845C18.8459 27.2957 20.2684 23.9282 21.1919 20.4022C21.6677 18.6439 22.5025 17.0161 23.412 15.449Z" fill="#FEFEFE" stroke="#FEFEFE" stroke-width="0.09" stroke-miterlimit="10"/>
<path d="M21.6723 21.349C23.2534 21.2557 24.8812 21.3116 26.3504 21.9739C26.4203 22.2818 26.5649 22.9021 26.6396 23.2146C26.6675 23.5551 26.6396 23.8955 26.5463 24.236C24.7833 24.0821 22.5865 23.4898 21.2292 25.0242C21.0007 24.7537 20.7768 24.4832 20.5576 24.2127C20.9727 23.2706 21.3365 22.3144 21.6723 21.349Z" fill="#3A3A3A" stroke="#3A3A3A" stroke-width="0.09" stroke-miterlimit="10"/>
<path d="M22.941 27.3889C24.9791 26.4421 26.6722 29.8328 25.4222 31.316C24.0184 32.6313 20.9261 31.4326 21.3925 29.3338C21.6397 28.5176 22.3206 27.9299 22.941 27.3889Z" fill="#FBFBFB" stroke="#FBFBFB" stroke-width="0.09" stroke-miterlimit="10"/>
<path d="M15.7769 33.1816C16.0055 33.3076 16.4579 33.5501 16.6818 33.6714C16.36 34.6928 15.9542 35.6816 15.4971 36.647C15.5018 36.8243 15.5204 37.1787 15.5251 37.3513C14.415 39.646 14.1585 42.2672 12.8293 44.4593C12.7546 40.5135 14.8115 36.9362 15.7769 33.1816Z" fill="#4E4E4E" stroke="#4E4E4E" stroke-width="0.09" stroke-miterlimit="10"/>
<path d="M2.30715 56.2874C16.2294 56.0682 30.1609 56.3387 44.0878 56.1708C44.7221 56.2268 45.4683 55.9749 46.042 56.3294C46.084 56.6559 46.1633 57.3135 46.2053 57.6446C42.3994 57.9245 38.5795 57.6819 34.769 57.7939C24.3402 57.7519 13.9067 57.8219 3.47783 57.7566C2.39577 57.9991 2.20454 57.1642 2.30715 56.2874Z" fill="#FCFCFC" stroke="#FCFCFC" stroke-width="0.09" stroke-miterlimit="10"/>
</g>
<defs>
<clipPath id="clip0_1_476">
<rect width="48.4844" height="60" fill="white"/>
</clipPath>
</defs>
</svg>
