<svg width="50" height="60" viewBox="0 0 50 60" fill="none" xmlns="http://www.w3.org/2000/svg">
<g clip-path="url(#clip0_1_493)">
<path d="M22.8648 0.536816C24.1771 -0.224885 25.7097 -0.0413429 27.1138 0.321153C28.004 1.00026 28.9492 1.68854 29.4677 2.72097C30.2524 3.98741 29.7981 5.52917 29.7843 6.92409C30.2524 6.76808 30.7204 6.61666 31.1976 6.46982C31.2206 6.64419 31.2664 6.99751 31.2848 7.17646C31.1425 7.30494 30.8535 7.5619 30.7066 7.69038C30.7984 9.57169 31.9914 11.1318 32.6522 12.8387C37.7225 24.7415 41.9532 36.9837 46.8905 48.9369C47.7715 48.9828 48.6754 48.9369 49.5427 49.1572C49.6711 52.7409 49.7675 56.3658 49.3499 59.9311C35.309 59.9265 21.268 59.9403 7.22697 59.9724C4.88681 59.9495 2.54664 60.0871 0.215656 59.8577C-0.215668 56.3337 0.160594 52.773 0.119297 49.2352C0.821346 49.0838 1.52798 48.9553 2.23921 48.8222C4.67115 42.1138 7.40134 35.5154 9.91128 28.8345C12.0312 23.6494 13.784 18.2945 16.4316 13.3435C16.9364 12.3432 17.5696 11.1089 16.9685 10.0122C16.4408 9.06236 16.115 7.9244 15.234 7.23611C14.5182 7.02045 13.7519 7.08928 13.0223 7.14893C12.1138 7.76838 11.8155 8.87882 12.1276 9.91124C12.6139 10.4986 13.3389 10.8106 13.9997 11.1731C14.1786 11.0171 14.532 10.7051 14.7109 10.5491L15.0229 10.4527C15.4772 10.4252 16.3903 10.3747 16.8446 10.3472C16.4637 13.1186 12.8158 13.4215 11.0768 11.7696C8.9431 10.338 9.5029 6.94244 11.453 5.61176C13.2793 4.27649 15.9865 4.67111 17.5604 6.23122C18.1799 6.8782 18.9553 7.33247 19.7721 7.70873C19.7813 9.37897 19.7262 11.0951 19.0196 12.6414C14.4998 23.0253 10.4068 33.5882 6.37809 44.1694C5.79534 45.8626 4.76292 47.4502 4.67574 49.2765C5.58427 49.5151 6.5341 49.2168 6.74976 48.2257C10.8152 37.4059 15.1239 26.6778 19.662 16.0507C20.5109 13.9308 21.5249 11.8522 22.0526 9.62216C21.3643 8.99812 20.598 8.46126 19.9465 7.8005C19.249 5.10702 20.5476 2.04645 22.8648 0.536816Z" fill="#333332" stroke="#333332" stroke-width="0.09" stroke-miterlimit="10"/>
<path d="M22.1811 3.49642C23.03 2.85402 24.1496 2.75308 25.1591 2.52365C26.4668 2.29422 27.2377 3.59737 28.0728 4.36366C28.1049 4.7078 28.1416 5.05194 28.1829 5.40068C27.6598 4.89135 27.1322 4.39578 26.5999 3.90939C25.7923 3.68914 24.4341 4.19847 24.2184 3.01004C23.3145 3.7855 22.4518 4.60685 21.6396 5.47868C21.7635 4.80875 21.502 3.92316 22.1811 3.49642Z" fill="#F2F2F0" stroke="#F2F2F0" stroke-width="0.09" stroke-miterlimit="10"/>
<path d="M31.1563 6.1257C32.822 5.03821 34.8455 4.31322 36.8324 4.96479C38.3879 5.7632 39.535 7.46556 39.457 9.24592C39.3102 10.7969 38.0942 12.0725 36.5892 12.4028C35.6806 12.5451 34.4601 13.0131 33.836 12.0633C32.6522 10.6592 31.6611 8.97978 31.2848 7.17648C31.2664 6.99752 31.2206 6.6442 31.1976 6.46984L31.1563 6.1257Z" fill="#363635" stroke="#363635" stroke-width="0.09" stroke-miterlimit="10"/>
<path d="M22.9887 6.2955C24.2873 5.68523 25.8198 5.55675 27.0266 6.46069C27.6507 7.55736 26.4852 8.64026 25.7831 9.37902C24.0441 10.1224 22.4977 7.89691 22.9887 6.2955Z" fill="#FAFAF8" stroke="#FAFAF8" stroke-width="0.09" stroke-miterlimit="10"/>
<path d="M33.0468 7.19025C33.914 7.14895 34.7859 7.02047 35.6623 7.13059C36.2955 7.53898 36.8232 8.0896 37.3922 8.58976C37.2958 9.42487 36.7681 10.0352 36.1349 10.5353C35.7265 9.45241 35.2677 8.39704 34.7537 7.3692C34.5151 7.6904 34.0379 8.33739 33.8039 8.66317C33.5607 8.16302 33.3038 7.67204 33.0468 7.19025Z" fill="#F6F6F4" stroke="#F6F6F4" stroke-width="0.09" stroke-miterlimit="10"/>
<path d="M12.1276 9.91124C11.8155 8.87881 12.1138 7.76838 13.0223 7.14893C13.0086 7.4013 12.981 7.91063 12.9673 8.163C12.9535 8.46584 12.9214 9.06694 12.9076 9.3652C13.4582 9.70016 14.0226 10.0076 14.6008 10.315L14.7109 10.549C14.532 10.7051 14.1787 11.0171 13.9997 11.1731C13.3389 10.8106 12.614 10.4986 12.1276 9.91124Z" fill="#D8D8D6" stroke="#D8D8D6" stroke-width="0.09" stroke-miterlimit="10"/>
<path d="M19.7721 7.70874L19.9465 7.80051C20.598 8.46126 21.3643 8.99813 22.0526 9.62217C21.5249 11.8522 20.5109 13.9308 19.662 16.0507C15.1239 26.6778 10.8152 37.4059 6.74976 48.2257C6.5341 49.2168 5.58427 49.5151 4.67574 49.2765C4.76292 47.4503 5.79534 45.8626 6.37809 44.1694C10.4068 33.5882 14.4998 23.0254 19.0196 12.6414C19.7262 11.0951 19.7813 9.37898 19.7721 7.70874Z" fill="#FAFAF8" stroke="#FAFAF8" stroke-width="0.09" stroke-miterlimit="10"/>
<path d="M12.9673 8.16304C13.9263 8.11715 14.8945 8.10339 15.8627 8.11715C15.7296 8.88803 15.3763 9.57173 14.9128 10.1912L14.6008 10.3151C14.0226 10.0076 13.4583 9.70021 12.9076 9.36524C12.9214 9.06698 12.9535 8.46588 12.9673 8.16304Z" fill="#2F2F2D" stroke="#2F2F2D" stroke-width="0.09" stroke-miterlimit="10"/>
<path d="M27.5589 10.1361C27.4029 9.32397 28.316 8.97524 28.784 8.53015C29.3622 10.6776 30.2111 12.7424 31.1058 14.7752C35.6302 26.1319 39.7644 37.6446 44.4172 48.9462C43.7014 48.9462 42.9902 48.9462 42.2836 48.9508C37.4381 35.9881 32.6522 22.9979 27.5589 10.1361Z" fill="#FCFBFA" stroke="#FCFBFA" stroke-width="0.09" stroke-miterlimit="10"/>
<path d="M22.2316 16.7712C23.1126 14.9633 23.6724 12.8388 25.2921 11.5265C27.4442 16.1518 28.9217 21.0523 30.9774 25.7235C34.483 33.2717 36.6121 41.3751 40.1637 48.9095C29.8027 49.0104 19.4463 48.9829 9.08534 48.8911C9.7048 46.7483 10.65 44.7247 11.4026 42.6323C13.004 38.5669 14.2979 34.3821 16.037 30.3763C18.4001 25.9805 20.13 21.2909 22.2316 16.7712Z" fill="#FCFBFB" stroke="#FCFBFB" stroke-width="0.09" stroke-miterlimit="10"/>
<path d="M23.6403 17.2209C23.2824 15.8764 24.0486 14.4723 25.2096 13.7932C25.6776 14.6742 26.3659 15.5369 26.3337 16.5968C26.0263 17.1612 25.6592 17.6935 25.3059 18.2304C24.7278 17.9275 24.0441 17.7577 23.6403 17.2209Z" fill="#343331" stroke="#343331" stroke-width="0.09" stroke-miterlimit="10"/>
<path d="M25.5996 19.1527C26.1823 18.8911 26.7788 18.6433 27.3753 18.4001C27.2927 18.8957 27.1964 19.3959 27.0863 19.8914C26.1135 20.1071 25.1086 19.997 24.1266 19.9603C24.0716 19.7308 23.966 19.2766 23.911 19.0471C24.4662 19.0793 25.0306 19.1114 25.5996 19.1527Z" fill="#8E8E8E" stroke="#8E8E8E" stroke-width="0.09" stroke-miterlimit="10"/>
<path d="M22.0939 25.0856C24.8975 24.1037 28.1187 24.9709 30.156 27.0908C31.7574 28.8253 32.5558 31.1012 33.2854 33.3038C34.327 36.7498 33.836 40.9483 31.0187 43.4399C26.3888 47.7302 17.8449 45.7525 15.4864 39.9159C13.9767 37.2316 15.2707 34.171 16.2894 31.5693C17.4686 28.9171 19.0655 25.8978 22.0939 25.0856Z" fill="#383735" stroke="#383735" stroke-width="0.09" stroke-miterlimit="10"/>
<path d="M22.5941 27.4304C24.5809 26.2374 27.0541 27.2193 28.5041 28.7978C30.5231 31.0783 31.5005 34.1893 31.3444 37.2178C31.294 38.9247 30.5506 40.6408 29.2383 41.7559C26.7421 43.5546 23.186 44.0226 20.5109 42.3294C18.1523 40.9666 17.175 37.9611 17.8174 35.3869C18.2671 32.2805 19.7813 29.0364 22.5941 27.4304Z" fill="#FAFAF9" stroke="#FAFAF9" stroke-width="0.09" stroke-miterlimit="10"/>
<path d="M23.4338 27.8066C24.6314 27.5864 26.063 27.5222 27.0083 28.4399C29.4907 30.5506 30.5506 34.0012 30.546 37.1719C30.6883 39.3377 29.2383 41.2878 27.3386 42.1826C24.3331 44.0089 19.8547 42.334 18.68 39.044C18.0101 36.4377 18.6066 33.5423 20.2722 31.4224C21.268 30.1927 21.9746 28.5408 23.4338 27.8066Z" fill="#3B3A38" stroke="#3B3A38" stroke-width="0.09" stroke-miterlimit="10"/>
<path d="M24.0395 29.6743C26.1181 28.7749 27.4901 30.9774 27.3019 32.8037C25.9758 32.7257 24.613 32.3356 23.3007 32.6385C22.4794 33.391 22.227 34.7584 20.9743 34.9878C21.7131 33.0698 22.9382 31.3904 24.0395 29.6743Z" fill="#FBFBF9" stroke="#FBFBF9" stroke-width="0.09" stroke-miterlimit="10"/>
<path d="M21.1487 37.1398C21.8324 36.658 22.4335 35.9835 23.2594 35.7403C24.9159 35.5705 26.5815 35.777 28.2196 36.0523C27.9673 37.773 27.5451 39.8241 25.7648 40.6042C24.5304 40.8198 22.9015 41.0217 22.0939 39.8195C21.3827 39.1037 21.2083 38.0988 21.1487 37.1398Z" fill="#FCFCFA" stroke="#FCFCFA" stroke-width="0.09" stroke-miterlimit="10"/>
<path d="M2.33098 51.1257C17.3585 51.1899 32.386 51.066 47.409 51.1395C47.3493 53.3007 47.3493 55.4711 47.3539 57.6369C32.3402 57.7607 17.3264 57.7378 2.30804 57.7286C2.22545 55.5261 2.29428 53.3236 2.33098 51.1257Z" fill="#FDFDFD" stroke="#FDFDFD" stroke-width="0.09" stroke-miterlimit="10"/>
</g>
<defs>
<clipPath id="clip0_1_493">
<rect width="49.6604" height="60" fill="white"/>
</clipPath>
</defs>
</svg>
